<?xml version="1.0" encoding="UTF-8"?>
<svg id="Layer_2" data-name="Layer 2" xmlns="http://www.w3.org/2000/svg" viewBox="0 0 183.88 110.13">
  <defs>
    <style>
      .cls-1 {
        fill: #be3326;
      }

      .cls-1, .cls-2 {
        stroke-width: 0px;
      }

      .cls-2 {
        fill: #e5a124;
      }
    </style>
  </defs>
  <g id="Layer_1-2" data-name="Layer 1">
    <g>
      <path class="cls-1" d="M146.48,8.79c-8.54,0-16.68,2.86-23.28,8.12C116.33,6.4,104.64,0,91.91,0s-24.38,6.38-31.27,16.86c-6.59-5.23-14.71-8.08-23.23-8.08-.76,0-1.54.02-2.3.07C16.16,9.99.76,25.74.03,44.72c-.75,19.58,13.88,36.56,33.31,38.67.23.02.45.04.66.04,3.44,0,6.23-2.82,6.23-6.29,0-1.56-.58-3.05-1.63-4.21-1.02-1.13-2.43-1.85-3.96-2.03-13.31-1.48-22.98-13.13-22.04-26.5.84-11.96,10.47-21.83,22.39-22.95.8-.08,1.61-.11,2.4-.11,7.32,0,14.24,3.22,18.98,8.82.27.32.54.65.79.98.11.16.21.28.31.4,1.21,1.44,2.98,2.27,4.86,2.27,2.6,0,4.96-1.62,5.91-4.05.05-.12.09-.25.14-.38.14-.43.29-.84.45-1.24,3.83-9.48,12.88-15.6,23.07-15.6s19.28,6.14,23.09,15.64c.11.28.22.56.32.84v.18l.21.44c.9,2.52,3.27,4.2,5.97,4.2,1.96,0,3.79-.89,5-2.44.35-.47.65-.84.95-1.19,4.75-5.65,11.68-8.88,19.03-8.88.45,0,.9.01,1.35.04,13.02.69,23.34,11.45,23.51,24.49.15,11.52-7.69,21.5-18.48,24.36.07-.56.1-1.13.1-1.7,0-7.7-6.26-13.96-13.96-13.96-6.8,0-12.56,4.83-13.74,11.49-.03.11-.05.24-.07.4-.1.69-.16,1.38-.16,2.07,0,5.24,2.88,9.98,7.51,12.38,4.83,2.5,12.01,2.7,14.09,2.7.48,0,.93,0,1.35-.03,19.8-.78,35.9-17.55,35.9-37.38s-16.78-37.4-37.4-37.4Z"/>
      <g>
        <path class="cls-2" d="M90.12,92.06c-2.33-3.01-6.66-3.56-9.66-1.23l-3.47,2.69-23.68-31.33c-2.29-3.04-6.61-3.64-9.65-1.34h0c-3.04,2.3-3.64,6.62-1.34,9.65l27.89,36.9c2.31,3.06,6.68,3.64,9.71,1.29l8.98-6.96c3.01-2.33,3.56-6.66,1.23-9.66h0Z"/>
        <path class="cls-2" d="M128.23,83.8l-12.56,9.72-23.68-31.33c-2.29-3.03-6.61-3.64-9.65-1.34-3.04,2.29-3.64,6.61-1.34,9.65l27.88,36.9c2.31,3.06,6.68,3.64,9.71,1.29l26.74-20.7c-6.12-.17-11.91-1.65-17.11-4.19Z"/>
      </g>
    </g>
  </g>
</svg>