<?xml version="1.0" encoding="UTF-8"?>
<svg id="Layer_2" data-name="Layer 2" xmlns="http://www.w3.org/2000/svg" viewBox="0 0 231.42 73.42">
  <defs>
    <style>
      .cls-1 {
        fill: #be3326;
      }

      .cls-1, .cls-2 {
        stroke-width: 0px;
      }

      .cls-2 {
        fill: #e5a124;
      }
    </style>
  </defs>
  <g id="Layer_1-2" data-name="Layer 1">
    <g>
      <g>
        <path class="cls-1" d="M70.18,1.34c-.44,1.61-2.75,1.96-4.38,5.63-1.1,2.47-12.29,27.51-14.61,32.67-.25.54-.79.89-1.39.89h-2.65c-4.16,0-5.4-2.68-5.93-3.86l-6.07-13.59c-3.1,6.96-6.28,14.06-7.38,16.55-.25.54-.79.89-1.39.89h-2.65c-4.16,0-5.4-2.68-5.93-3.86L4.61,7.04S3.15,3.09,1.33,2.22C-.48,1.34-.46,0,1.5,0h10.61c.7,0,.96.28,1,.65.23,1.84.44,3.68,1.21,5.37,3.26,7.14,11.61,24.95,11.89,25.51,2.05-4.61,4.38-9.84,6.36-14.27l-4.56-10.22s-1.46-3.95-3.28-4.82C22.93,1.34,22.95,0,24.91,0h10.61c.7,0,.96.28,1,.65.21,1.75.42,3.52,1.12,5.14,0,0,11.75,25.3,11.98,25.74,4.49-10.06,10.29-23.04,10.98-24.56,1.63-3.67-.05-4.1.63-5.63.68-1.54,2.88-1.31,2.88-1.31h4.4s2.09-.16,1.68,1.32Z"/>
        <path class="cls-1" d="M85.04,39.21c0,1.53-2.28,1.31-2.28,1.31h-9.17s-2.28.22-2.28-1.31,1.88-1.97,1.88-5.62v-11.84c0-3.65-1.88-3.92-1.88-5.45,0-2,5.1-3.67,8.61-4.65,1.63-.46,3.24.78,3.24,2.47v19.48c0,3.65,1.88,4.09,1.88,5.63ZM73.18,5C73.18,2.24,75.42.01,78.17.01s4.99,2.23,4.99,4.99-2.23,4.99-4.99,4.99-4.99-2.23-4.99-4.99Z"/>
        <path class="cls-1" d="M101.36,39.2c0,1.53-2.28,1.31-2.28,1.31h-9.17s-2.28.22-2.28-1.31,1.88-1.97,1.88-5.62V10.59c0-3.65-1.88-3.92-1.88-5.45,0-2,5.1-3.67,8.61-4.65,1.63-.46,3.24.78,3.24,2.47v30.63c0,3.65,1.88,4.09,1.88,5.63Z"/>
        <path class="cls-1" d="M143.28,30.92c0,9.61-11.18,9.61-15.78,9.61h-11.32c-.16,0-.29,0-.36,0h-2.49s-6.76,0-6.76,0c0,0-2.28.22-2.28-1.31s1.88-1.97,1.88-5.62V6.95c0-3.65-1.88-4.09-1.88-5.62S106.57.01,106.57.01h9.17s.23-.02.54,0h6.79c10.58,0,15.06,3.47,15.06,8.91s-3.73,9.06-8.3,11.89c4.39.46,13.45,2.33,13.45,10.11ZM121.42,3.48c-4.93,0-5.28,3.46-5.28,3.46v16.69c7.14-1.8,12.46-7.35,12.46-13.02,0-3.29-2.25-7.14-7.18-7.14ZM126.7,22.54h0c-3.91,1.92-7.94,3.17-10.56,3.87v6.58s-.04,4.06,7.34,4.06c6.36,0,8.8-1.66,9.35-4.9,1.46-8.55-6.13-9.61-6.13-9.61Z"/>
        <path class="cls-1" d="M158.93,39.2c0,1.53-2.28,1.31-2.28,1.31h-9.17s-2.28.22-2.28-1.31,1.88-1.97,1.88-5.62V10.59c0-3.65-1.88-3.92-1.88-5.45,0-2,5.1-3.67,8.61-4.65,1.63-.46,3.24.78,3.24,2.47v30.63c0,3.65,1.88,4.09,1.88,5.63Z"/>
        <path class="cls-1" d="M175.46,39.21c0,1.53-2.28,1.31-2.28,1.31h-9.17s-2.28.22-2.28-1.31,1.88-1.97,1.88-5.62v-11.84c0-3.65-1.88-3.92-1.88-5.45,0-2,5.1-3.67,8.61-4.65,1.63-.46,3.24.78,3.24,2.47v19.48c0,3.65,1.88,4.09,1.88,5.63ZM163.61,5c0-2.75,2.23-4.99,4.99-4.99s4.99,2.23,4.99,4.99-2.23,4.99-4.99,4.99-4.99-2.23-4.99-4.99Z"/>
        <path class="cls-1" d="M202.81,35c-.28,2.47-2.04,6.45-12.27,6.45-11.09,0-12.36-3.32-12.36-7.47,0-1,1-3.6,4.06-3.6,2.3,0,3.98,1.56,4.06,3.6.08,2.05,1.27,3.32,4.24,3.32,1.33,0,3.53-.25,3.53-1.71,0-1.9-3.23-2.93-7.51-5.92-4.14-2.9-7.53-4.75-7.53-10.28,0-5.06,5.9-7.84,12.12-7.84,8.48,0,11.35,4.01,11.35,6.83,0,1.88-.56,4.19-3.79,4.19-.6,0-4.33-1.08-4.33-4.19,0-2.37-1.83-2.99-3.48-2.99-1.76,0-3.23.93-3.23,2.46,0,2.26,3.18,3.71,7.52,6.41,6.46,4.02,8.13,6.21,7.62,10.74Z"/>
        <path class="cls-1" d="M230.48,35c-.28,2.47-2.04,6.45-12.27,6.45-11.09,0-12.36-3.32-12.36-7.47,0-1,1-3.6,4.06-3.6,2.3,0,3.98,1.56,4.06,3.6.08,2.05,1.27,3.32,4.24,3.32,1.33,0,3.53-.25,3.53-1.71,0-1.9-3.23-2.93-7.51-5.92-4.14-2.9-7.53-4.75-7.53-10.28,0-5.06,5.9-7.84,12.12-7.84,8.48,0,11.35,4.01,11.35,6.83,0,1.88-.56,4.19-3.79,4.19-.6,0-4.33-1.08-4.33-4.19,0-2.37-1.83-2.99-3.48-2.99-1.76,0-3.23.93-3.23,2.46,0,2.26,3.18,3.71,7.52,6.41,6.46,4.02,8.13,6.21,7.62,10.74Z"/>
      </g>
      <g>
        <path class="cls-2" d="M18.68,60.7c0,2.19-2.56,6.18-8.61,6.18-4.19,0-9.57-2.66-9.57-9.29,0-7.04,6.33-9.28,10.21-9.28,5.79,0,7.77,3.34,6.74,6.38-.29.84-.85,1.61-2.56,1.39-1.09-.14-2.21-.99-2.21-3.67,0-2.27-2-2.29-3.09-2-6.1,1.63-5.56,14.47,1.23,14.47,5.01,0,7.86-5.19,7.86-4.18Z"/>
        <path class="cls-2" d="M34.61,66.72h-4c-1.37,0-1.52-.99-1.52-.99,0,0-.16-.56-.38-1.37-.25.76-1.29,2.83-5.42,2.83-2.28,0-4.3-.99-3.56-3.91.8-3.18,5.84-5.09,7.12-5.54-.21-.81-.81-3.35-1.97-3.35-1.39,0,.49,5.02-3.2,4.35-2.23-.4-1.5-4.98,3.76-4.98,4.97,0,5.62,3,5.62,3,0,0,2.06,7.33,2.23,7.93.17.59.76,1.18,1.3,1.32.54.14.41.71.02.71ZM28.48,63.56c-.46-1.64-1.06-3.79-1.38-4.94-4.58,2.18-3.25,6.54-1.15,6.54,1.87,0,2.39-1.12,2.53-1.6Z"/>
        <path class="cls-2" d="M40.62,66.92c-4.39,0-4.66-3.25-4.66-5.27v-4.42c0-.65-.01-1.05-.03-1.35h-1.24c-.43,0-.79-.35-.79-.79s.35-.79.79-.79c.74,0,1.42-.37,1.84-.98.59-.88,1.51-1.86,2.45-2.13.73-.21,1.45.35,1.45,1.11v2h1.95c.43,0,.79.35.79.79s-.35.79-.79.79h-1.95v7.72s-.1,1.56,1.4,1.56c2.18,0,2.62-2.45,2.91-2.43.26.02.42,4.2-4.12,4.2Z"/>
        <path class="cls-2" d="M52.95,67.13c-5.53,0-7.25-2.82-7.25-6.29s2.75-7.08,7.19-7.08,5.66,2.88,5.66,5.47-2.05,4.29-5.15,4.29c-4.26,0-3.52-3.65-3.23-3.14.28.48.63,1.59,2.54,1.59,2.04,0,2.17-2.06,2.17-3.33s-.52-3.24-2.29-3.24-3.45,1.8-3.04,5.23c.41,3.44,1.77,4.51,4.05,4.51s3.95-1.78,4.71-2.38c.76-.6.17,4.37-5.37,4.37Z"/>
        <path class="cls-2" d="M72.9,58.11c0,2.6-4.45,3.17-4.45-.11,0-1.04.32-2.52-1.37-2.52s-1.8,3.38-1.8,3.39v4.74c0,1.64.84,1.83.84,2.52s-1.02.59-1.02.59h-4.11s-1.02.1-1.02-.59.84-.88.84-2.52v-5.04c0-1.64-.84-1.83-.84-2.52,0-1.02,2.29-1.83,3.86-2.27.73-.21,1.45.35,1.45,1.11v.73c.79-1.25,2.08-1.85,3.52-1.85,2.87,0,4.1,1.69,4.1,4.34Z"/>
        <path class="cls-2" d="M80.08,66.13c0,.69-1.02.59-1.02.59h-4.11s-1.02.1-1.02-.59.84-.88.84-2.52v-5.3c0-1.64-.84-1.75-.84-2.44,0-.9,2.29-1.65,3.86-2.08.73-.21,1.45.35,1.45,1.11v8.72c0,1.64.84,1.83.84,2.52ZM74.78,50.8c0-1.23,1-2.23,2.23-2.23s2.23,1,2.23,2.23-1,2.23-2.23,2.23-2.23-1-2.23-2.23Z"/>
        <path class="cls-2" d="M98.35,66.72h-4.23c-1.37,0-1.52-.99-1.52-.99,0,0-2.02-7.23-2.2-7.86-.18-.64-.53-2.41-1.76-2.41-1.99,0-2,3.36-2,3.41v4.75c0,1.64.84,1.83.84,2.52s-1.02.59-1.02.59h-4.11s-1.02.1-1.02-.59.84-.88.84-2.52v-5.04c0-1.64-.84-1.83-.84-2.52,0-1.02,2.29-1.83,3.86-2.27.73-.21,1.45.35,1.45,1.11v.35c.72-.83,1.79-1.47,3.14-1.47,3.79,0,4.39,1.79,4.84,3,.76,2.05,2.06,6.48,2.23,7.07s.78,1.12,1.3,1.32c.9.33.97,1.56.2,1.56Z"/>
        <path class="cls-2" d="M108.98,54.54c1.76.91,2.93,2.6,2.93,4.93,0,4.25-2.77,5.69-6.19,5.69,0,0-.02,0-.03,0-.22,0-1.86.07-1.86,3.34,0,1.76.79,3.64,2.18,3.64,2.11,0,2.28-1.13,2.26-3.06-.02-1.92,1.57-2.37,2.33-2.37s2.13.59,2.13,2.27-1.99,4.43-6.52,4.43c-4.92,0-6.69-2.49-6.69-4.92,0-2.03,1.51-3.29,3.09-4-1.85-.87-3.09-2.58-3.09-5.03,0-3.58,2.77-5.68,6.19-5.68,1.04,0,2.01.2,2.87.57.21-.67.71-1.54,1.9-1.89,3.22-.96,3.35,2.08,2.01,2.54-1.96.67-1.6-2.04-2.53-1.74-.54.18-.83.79-.99,1.28ZM107.55,59.6c0-2.29-.82-4.15-1.83-4.15s-1.83,1.86-1.83,4.15.82,4.15,1.83,4.15,1.83-1.86,1.83-4.15Z"/>
        <path class="cls-2" d="M139.04,62.74c0,2.42-1.87,4.14-7.66,4.14-9.23,0-8.64-4.21-8.64-4.21,0,0,.15-2.23,2.23-2.23s2.23,2.23,2.23,2.23c0,0-.18,2.48,4.3,2.48s2.86-3.13-.46-4.46c-3.18-1.28-7.27-2.83-7.27-6.94s4.86-5.19,7.85-5.19c4.48,0,7.2,2.22,7.2,4.66,0,.88-.57,2.23-2.23,2.23-1.09,0-2.23-.84-2.23-2.23,0,0-.12-3.05-3.02-3.05-1.96,0-3.71.4-3.71,2.26,0,2.52,3.05,3.05,5.68,4.28,3.49,1.64,5.73,3.27,5.73,6.03Z"/>
        <path class="cls-2" d="M147.49,67.13c-5.53,0-7.25-2.82-7.25-6.29s2.75-7.08,7.19-7.08,5.66,2.88,5.66,5.47-2.05,4.29-5.15,4.29c-4.26,0-3.52-3.65-3.23-3.14.28.48.63,1.59,2.54,1.59,2.04,0,2.17-2.06,2.17-3.33s-.52-3.24-2.29-3.24-3.45,1.8-3.04,5.23c.41,3.44,1.77,4.51,4.05,4.51s3.95-1.78,4.71-2.38c.76-.6.17,4.37-5.37,4.37Z"/>
        <path class="cls-2" d="M167.44,58.11c0,2.6-4.45,3.17-4.45-.11,0-1.04.32-2.52-1.37-2.52s-1.8,3.38-1.8,3.39v4.74c0,1.64.84,1.83.84,2.52s-1.02.59-1.02.59h-4.11s-1.02.1-1.02-.59.84-.88.84-2.52v-5.04c0-1.64-.84-1.83-.84-2.52,0-1.02,2.29-1.83,3.86-2.27.73-.21,1.45.35,1.45,1.11v.73c.79-1.25,2.08-1.85,3.52-1.85,2.87,0,4.1,1.69,4.1,4.34Z"/>
        <path class="cls-2" d="M184.06,54.33c-.2.72-1.23.88-1.96,2.52-.5,1.11-3.34,7.16-4.37,9.47-.11.25-.35.4-.62.4h-1.18c-1.86,0-2.42-1.2-2.65-1.73l-3.42-8.08s-.65-1.77-1.47-2.16c-.81-.39-.8-.99.08-.99h4.75c.31,0,.43.12.45.29.1.83.2,1.65.54,2.4,1.46,3.2,2.7,5.98,2.82,6.23,2.01-4.51,2.44-5.15,2.74-5.84.73-1.64-.02-1.84.28-2.52.31-.69,1.29-.59,1.29-.59h1.97s.93-.07.75.59Z"/>
        <path class="cls-2" d="M190.9,66.13c0,.69-1.02.59-1.02.59h-4.11s-1.02.1-1.02-.59.84-.88.84-2.52v-5.3c0-1.64-.84-1.75-.84-2.44,0-.9,2.29-1.65,3.86-2.08.73-.21,1.45.35,1.45,1.11v8.72c0,1.64.84,1.83.84,2.52ZM185.59,50.8c0-1.23,1-2.23,2.23-2.23s2.23,1,2.23,2.23-1,2.23-2.23,2.23-2.23-1-2.23-2.23Z"/>
        <path class="cls-2" d="M204.91,63.01c0,2.31-2.57,4.12-5.91,4.12-3.73,0-6.54-1.98-6.9-5.25-.35-3.21,1.62-8.12,6.8-8.12,6.06,0,6.14,4.32,5.5,5.77-.64,1.45-3.9,1.3-3.9-1.52s-1.68-2.64-2.53-2.43c-3.07.76-2.85,9.6,1.45,9.6s5.5-3.45,5.5-2.16Z"/>
        <path class="cls-2" d="M213.36,67.13c-5.53,0-7.25-2.82-7.25-6.29s2.75-7.08,7.19-7.08,5.66,2.88,5.66,5.47-2.05,4.29-5.15,4.29c-4.26,0-3.52-3.65-3.23-3.14.28.48.63,1.59,2.54,1.59,2.04,0,2.17-2.06,2.17-3.33s-.52-3.24-2.29-3.24-3.45,1.8-3.04,5.23c.41,3.44,1.77,4.51,4.05,4.51s3.95-1.78,4.71-2.38c.76-.6.17,4.37-5.37,4.37Z"/>
        <path class="cls-2" d="M231.39,64.24c-.12,1.11-.91,2.89-5.5,2.89-4.97,0-5.54-1.49-5.54-3.35,0-.45.45-1.61,1.82-1.61,1.03,0,1.78.7,1.82,1.61.03.92.57,1.49,1.9,1.49.6,0,1.58-.11,1.58-.77,0-.85-1.45-1.31-3.36-2.65-1.86-1.3-3.37-2.13-3.37-4.61,0-2.27,2.64-3.51,5.43-3.51,3.8,0,5.08,1.8,5.08,3.06,0,.84-.25,1.88-1.7,1.88-.27,0-1.94-.49-1.94-1.88,0-1.06-.82-1.34-1.56-1.34-.79,0-1.45.42-1.45,1.1,0,1.01,1.43,1.66,3.37,2.87,2.89,1.8,3.64,2.78,3.41,4.81Z"/>
      </g>
    </g>
  </g>
</svg>